<?xml version="1.0" encoding="utf-8"?>
<!-- Generator: Adobe Illustrator 21.0.2, SVG Export Plug-In . SVG Version: 6.00 Build 0)  -->
<svg version="1.1" id="Layer_1" xmlns="http://www.w3.org/2000/svg" xmlns:xlink="http://www.w3.org/1999/xlink" x="0px" y="0px"
	 viewBox="0 0 221 221" style="enable-background:new 0 0 221 221;" xml:space="preserve">
<style type="text/css">
	.st0{fill:#F2F2F2;}
</style>
<title>favicon</title>
<desc>Created with Sketch.</desc>
<g id="Page-1">
	<g id="favicon">
		<path id="Fill-1" class="st0" d="M85.5,90.4v38.5c0,6.6,2.2,11.6,7.2,15.4c4.4,3.3,11,5.5,18.2,5.5c7.2,0,13.2-1.1,16.5-3.3
			s6.1-5.5,8.8-9.9c2.2-4.4,5.5-6.6,8.8-6.6h55c1.7,0,2.8,0.6,3.9,1.7c1.1,1.1,1.7,2.2,1.7,3.9c0,15.4-7.7,29.7-22.6,42.9
			c-7.7,6.6-17.6,11.6-29.7,15.4c-12.7,3.9-27,6.1-44,6.1s-32.5-2.8-46.2-7.7c-13.8-5-25.3-13.2-33.6-24.8
			c-8.8-11.6-13.2-25.9-13.2-42.4V95.9c0-16.5,4.4-30.8,13.2-42.4c16.5-21.5,43.5-32.5,82-32.5c15.4,0,29.7,2.2,41.8,6.1
			c12.7,3.9,22.6,9.4,29.7,15.4c14.9,12.7,22.6,27,22.6,42.9c0,1.7-0.6,2.8-1.7,3.9c-1.1,1.1-2.2,1.7-3.9,1.7h-55
			c-3.9,0-6.6-2.2-8.8-6.6s-5-7.7-8.8-9.9s-8.8-3.3-16.5-3.3S97,72.8,92.6,76.7C87.7,78.9,85.5,83.8,85.5,90.4"/>
	</g>
</g>
</svg>
