<?xml version="1.0" encoding="UTF-8" standalone="no"?>
<svg width="221px" height="221px" viewBox="0 0 221 221" version="1.1" xmlns="http://www.w3.org/2000/svg" xmlns:xlink="http://www.w3.org/1999/xlink">
    <!-- Generator: Sketch 39.1 (31720) - http://www.bohemiancoding.com/sketch -->
    <title>favicon</title>
    <desc>Created with Sketch.</desc>
    <defs></defs>
    <g id="Page-1" stroke="none" stroke-width="1" fill="none" fill-rule="evenodd">
        <g id="favicon">
            <rect id="Rectangle" fill="#000000" x="0" y="0" width="221" height="221"></rect>
            <path d="M93.3853265,96.6842766 L93.3853265,123.180184 C93.3853265,127.72234 94.8993784,131.128957 98.3059951,133.778548 C101.334099,136.049625 105.876254,137.563677 110.796923,137.563677 C115.717592,137.563677 119.881234,136.806651 122.152312,135.2926 C124.42339,133.778548 126.315955,131.50747 128.20852,128.479366 C129.722572,125.451262 131.993649,123.93721 134.264727,123.93721 L172.116024,123.93721 C173.251563,123.93721 174.008589,124.315723 174.765615,125.072749 C175.522641,125.829775 175.901154,126.586801 175.901154,127.72234 C175.901154,138.320703 170.601972,148.16204 160.382122,157.246352 C155.082941,161.788507 148.269707,165.195124 139.942422,167.844715 C131.236623,170.494306 121.395286,172.008358 109.661384,172.008358 C97.9274821,172.008358 87.329119,170.115793 77.8662947,166.709176 C68.4034705,163.302559 60.4546981,157.624865 54.7770036,149.676092 C48.7207961,141.72732 45.6926923,131.885983 45.6926923,120.530594 L45.6926923,100.469406 C45.6926923,89.1140172 48.7207961,79.27268 54.7770036,71.3239076 C66.1323927,56.5619018 84.6795282,48.9916424 111.175436,48.9916424 C121.773799,48.9916424 131.615136,50.5056943 139.942422,53.1552851 C148.64822,55.8048759 155.461453,59.5900056 160.382122,63.7536483 C170.601972,72.4594466 175.901154,82.3007838 175.901154,93.2776599 C175.901154,94.4131988 175.522641,95.1702247 174.765615,95.9272507 C174.008589,96.6842766 173.251563,97.0627896 172.116024,97.0627896 L134.264727,97.0627896 C131.615136,97.0627896 129.722572,95.5487377 128.20852,92.5206339 C126.694468,89.4925302 124.801903,87.2214524 122.152312,85.7074005 C119.502721,84.1933486 116.096105,83.4363227 110.796923,83.4363227 C105.497742,83.4363227 101.334099,84.5718616 98.3059951,87.2214524 C94.8993784,88.7355042 93.3853265,92.142121 93.3853265,96.6842766" id="Fill-1" fill="#FF2B00"></path>
        </g>
    </g>
</svg>