<svg width="26" height="28" xmlns="http://www.w3.org/2000/svg"><g fill="none" fill-rule="evenodd"><path d="M-7-6h40v40H-7z"/><path d="M20.583 17.23c-.948 0-1.822.23-2.623.69a5.755 5.755 0 0 0-1.947 1.801l-5.789-3.298c.18-.359.327-.74.44-1.144.113-.404.17-.83.17-1.279a4.415 4.415 0 0 0-.27-1.548l6.058-3.433a5.54 5.54 0 0 0 1.76 1.28c.678.313 1.411.47 2.201.47 1.49 0 2.765-.527 3.826-1.582C25.469 8.133 26 6.865 26 5.385c0-1.481-.53-2.749-1.591-3.803C23.349.527 22.073 0 20.583 0c-1.49 0-2.764.527-3.825 1.582-1.061 1.054-1.591 2.322-1.591 3.803a4.415 4.415 0 0 0 .27 1.548l-6.06 3.432a5.54 5.54 0 0 0-1.76-1.278 5.164 5.164 0 0 0-2.2-.472c-1.49 0-2.765.528-3.826 1.582C.531 11.252 0 12.52 0 14s.53 2.748 1.591 3.803c1.06 1.054 2.336 1.582 3.826 1.582a5.04 5.04 0 0 0 1.743-.303 6.497 6.497 0 0 0 1.54-.808l6.534 3.77a2.581 2.581 0 0 0-.068.572c0 1.48.531 2.748 1.592 3.802C17.818 27.473 19.094 28 20.583 28c1.49 0 2.765-.527 3.826-1.582C25.469 25.364 26 24.096 26 22.615c0-1.48-.53-2.748-1.591-3.802-1.06-1.055-2.336-1.582-3.826-1.582z" fill="#FFF"/></g></svg>