<svg width="30" height="24" xmlns="http://www.w3.org/2000/svg" xmlns:xlink="http://www.w3.org/1999/xlink"><defs><path id="a" d="M0 40h40V0H0z"/></defs><g transform="translate(-4 -8)" fill="none" fill-rule="evenodd"><mask id="b" fill="#fff"><use xlink:href="#a"/></mask><path d="M9 15l9-6.5v23L9 25H4V15h5zm20.582-6.199C32.316 11.746 34 15.676 34 20.001c0 4.323-1.684 8.252-4.417 11.197l-1.629-1.176C30.453 27.415 32 23.887 32 20c0-3.888-1.547-7.416-4.047-10.022l1.63-1.177zM30 20c0 3.452-1.407 6.581-3.676 8.845l-1.655-1.195C26.714 25.733 28 23.017 28 20c0-3.017-1.286-5.733-3.331-7.65l1.655-1.195A12.462 12.462 0 0 1 30 20zm-4 0a8.478 8.478 0 0 1-2.985 6.455l-1.684-1.216A6.49 6.49 0 0 0 24 20a6.49 6.49 0 0 0-2.669-5.239l1.684-1.216A8.478 8.478 0 0 1 26 20z" fill="#FFF" mask="url(#b)"/></g></svg>