<svg xmlns="http://www.w3.org/2000/svg" xmlns:xlink="http://www.w3.org/1999/xlink"><symbol id="link_icon" viewBox="0 0 17 9">
    <!-- Generator: Sketch 42 (36781) - http://www.bohemiancoding.com/sketch -->
    <title>Page 1</title>
    <desc>Created with Sketch.</desc>
    
    <g id="credits" stroke="none" stroke-width="1" fill="none" fill-rule="evenodd">
        <g transform="translate(-103.000000, -248.000000)" id="Group" fill="#FFFFFF">
            <g transform="translate(103.000000, 238.000000)">
                <g id="Group-5">
                    <path d="M13.4705882,10 C14.4411821,10 15.2720565,10.367185 15.9632339,11.101564 C16.6544141,11.83594 17,12.718744 17,13.75 L17,15.25 C17,16.2812551 16.6544141,17.1640588 15.9632339,17.8984375 C15.2720565,18.6328162 14.4411821,19 13.4705882,19 L8.52941176,19 C7.02940329,19 5.95588612,18.2500075 5.30882353,16.75 C5.10294024,16.2187474 5,15.718753 5,15.25 L5,13.75 L7.11764706,13.75 L7.11764706,15.25 C7.11764706,15.687502 7.25,16.0468735 7.51470588,16.328125 C7.77941176,16.6093765 8.11764518,16.75 8.52941176,16.75 L13.4705882,16.75 C13.8823548,16.75 14.2205882,16.6093765 14.4852941,16.328125 C14.75,16.0468735 14.8823529,15.687502 14.8823529,15.25 L14.8823529,13.75 C14.8823529,13.312498 14.75,12.953125 14.4852941,12.671875 C14.2205882,12.390625 13.8823548,12.25 13.4705882,12.25 L12.7647059,12.25 C12.6764706,11.812498 12.5147078,11.406253 12.2794118,11.03125 C12.0441158,10.656247 11.8235304,10.390627 11.6176471,10.234375 L11.3529412,10 L13.4705882,10 Z M11.7352941,12.25 C11.9117647,12.718753 12,13.218748 12,13.75 L12,15.25 L9.88235294,15.25 L9.88235294,13.75 C9.88235294,13.312498 9.75,12.953125 9.48529412,12.671875 C9.22058824,12.390625 8.88235482,12.25 8.47058824,12.25 L3.52941176,12.25 C3.11764518,12.25 2.77941318,12.390625 2.51470588,12.671875 C2.24999859,12.953125 2.11764706,13.312498 2.11764706,13.75 L2.11764706,15.25 C2.11764706,15.687502 2.24999859,16.0468735 2.51470588,16.328125 C2.77941318,16.6093765 3.11764518,16.75 3.52941176,16.75 L4.23529412,16.75 C4.32352941,17.1875023 4.48529224,17.5937482 4.72058824,17.96875 C4.95588424,18.3437518 5.17646965,18.6093742 5.38235294,18.765625 L5.64705882,19 L3.52941176,19 C2.55881873,19 1.72794466,18.6328162 1.03676471,17.8984375 C0.345584753,17.1640588 0,16.2812551 0,15.25 L0,13.75 C0,12.718744 0.345584753,11.83594 1.03676471,11.101564 C1.72794466,10.367185 2.55881873,10 3.52941176,10 L8.47058824,10 C9.17647341,10 9.83088,10.210936 10.4338221,10.632814 C11.0367671,11.054689 11.4705882,11.593747 11.7352941,12.25 L11.7352941,12.25 Z" id="Page-1"/>
                </g>
            </g>
        </g>
    </g>
</symbol></svg>